<svg width="328" height="43" viewBox="0 0 328 43" fill="none" xmlns="http://www.w3.org/2000/svg">
<path d="M32.3035 17.3939C32.3035 20.2078 31.7082 22.7589 30.5177 25.0472C29.3272 27.32 27.6806 29.1521 25.5778 30.5436C23.4751 31.9351 21.1095 32.77 18.4811 33.0483V35.4371C18.4811 36.674 18.744 37.563 19.2697 38.1042C19.8108 38.6608 20.7153 38.9391 21.9831 38.9391C22.4933 38.9391 23.0345 38.9081 23.6065 38.8463V42.0932C22.6634 42.2787 21.8208 42.3715 21.0786 42.3715C16.7031 42.3715 14.5231 40.2301 14.5385 35.9473V33.0483C11.9101 32.77 9.55228 31.9351 7.46502 30.5436C5.39321 29.1521 3.76979 27.32 2.59473 25.0472C1.43514 22.7589 0.855347 20.2078 0.855347 17.3939C0.855347 14.348 1.54337 11.6268 2.91942 9.23034C4.29547 6.8184 6.174 4.93213 8.55503 3.57154C10.9515 2.21095 13.6263 1.53066 16.5794 1.53066C19.517 1.53066 22.1764 2.20322 24.5574 3.54835C26.9539 4.89347 28.8401 6.77974 30.2162 9.20715C31.6077 11.6191 32.3035 14.348 32.3035 17.3939ZM5.16903 17.3939C5.16903 19.6976 5.66378 21.7539 6.6533 23.5629C7.65828 25.3719 9.03433 26.7866 10.7814 27.807C12.5286 28.812 14.4612 29.3145 16.5794 29.3145C18.6976 29.3145 20.6225 28.812 22.3542 27.807C24.1013 26.7866 25.4696 25.3719 26.4591 23.5629C27.4641 21.7539 27.9666 19.6976 27.9666 17.3939C27.9666 15.0747 27.4641 13.0183 26.4591 11.2248C25.4696 9.41588 24.109 8.00891 22.3774 7.00393C20.6612 5.98349 18.744 5.47327 16.6258 5.47327C14.4767 5.47327 12.5286 5.98349 10.7814 7.00393C9.03433 8.00891 7.65828 9.41588 6.6533 11.2248C5.66378 13.0183 5.16903 15.0747 5.16903 17.3939Z" fill="white"/>
<path d="M55.2865 11.6423V32.5845H52.0629L51.6918 29.5464C51.027 30.7524 50.107 31.6568 48.932 32.2598C47.7569 32.8628 46.4118 33.1643 44.8966 33.1643C42.4537 33.1643 40.5597 32.4376 39.2146 30.9843C37.8695 29.5155 37.1969 27.5442 37.1969 25.0704V11.6423H41.1395V24.3282C41.1395 26.2609 41.5724 27.6369 42.4383 28.4564C43.3196 29.2758 44.5487 29.6855 46.1258 29.6855C47.7028 29.6855 48.9629 29.1444 49.906 28.0621C50.8646 26.9644 51.3439 25.511 51.3439 23.702V11.6423H55.2865Z" fill="white"/>
<path d="M81.7948 11.6423V32.5845H78.0841V28.8738C77.3884 30.1726 76.3215 31.2162 74.8836 32.0047C73.4457 32.7778 71.8223 33.1643 70.0134 33.1643C68.0807 33.1643 66.3568 32.7082 64.8416 31.796C63.3418 30.8683 62.1745 29.5773 61.3396 27.923C60.5047 26.2531 60.0873 24.336 60.0873 22.1714C60.0873 19.9604 60.5202 18.0123 61.386 16.327C62.2673 14.6263 63.4733 13.3198 65.0039 12.4076C66.5346 11.48 68.2972 11.0161 70.2917 11.0161C72.0697 11.0161 73.639 11.3717 74.9996 12.0829C76.3602 12.7942 77.4193 13.7682 78.1769 15.0051L78.5247 11.6423H81.7948ZM70.8715 29.5928C72.9278 29.5928 74.5899 28.9047 75.8577 27.5287C77.1255 26.1526 77.7594 24.305 77.7594 21.9858C77.7594 19.744 77.1332 17.9505 75.8809 16.6053C74.6285 15.2602 72.9896 14.5877 70.9642 14.5877C68.877 14.5877 67.2149 15.2757 65.978 16.6517C64.7411 18.0278 64.1226 19.8367 64.1226 22.0786C64.1226 24.3205 64.7411 26.1372 65.978 27.5287C67.2149 28.9047 68.846 29.5928 70.8715 29.5928Z" fill="white"/>
<path d="M98.864 11.0161C101.245 11.0161 103.147 11.7737 104.569 13.2889C105.992 14.7887 106.703 16.8991 106.703 19.6203V32.5845H102.714V20.5248C102.714 16.5667 101.114 14.5877 97.9131 14.5877C96.166 14.5877 94.7822 15.1133 93.7618 16.1647C92.7568 17.2006 92.2543 18.538 92.2543 20.1769V32.5381H88.3117V11.6423H91.6049L91.976 14.5877C92.6099 13.5054 93.5531 12.6395 94.8054 11.9902C96.0578 11.3408 97.4106 11.0161 98.864 11.0161Z" fill="white"/>
<path d="M145.433 11.6423V32.5845H142.21L141.769 29.7319C141.073 30.876 140.138 31.7341 138.963 32.3062C137.803 32.8783 136.497 33.1643 135.043 33.1643C132.6 33.1643 130.706 32.4376 129.361 30.9843C128.016 29.5155 127.344 27.5442 127.344 25.0704V14.9123H118.879V32.5845H114.936V14.9123H110.854V11.6423H114.936V6.07626H118.879V11.6423H131.286V24.3282C131.286 26.2609 131.719 27.6369 132.585 28.4564C133.451 29.2758 134.68 29.6855 136.272 29.6855C137.849 29.6855 139.11 29.1444 140.053 28.0621C141.011 26.9644 141.491 25.511 141.491 23.702V11.6423H145.433Z" fill="white"/>
<path d="M175.327 11.0161C177.538 11.0161 179.332 11.6887 180.708 13.0338C182.099 14.3789 182.795 16.2884 182.795 18.7622V32.6309H178.899V19.6203C178.899 17.8732 178.489 16.5744 177.67 15.7241C176.866 14.8737 175.753 14.4485 174.33 14.4485C172.784 14.4485 171.555 14.9742 170.643 16.0255C169.746 17.0615 169.298 18.3215 169.298 19.8058V32.6309H165.401V19.6203C165.401 18.0123 164.992 16.7522 164.172 15.84C163.353 14.9123 162.209 14.4485 160.74 14.4485C159.255 14.4485 158.057 14.9742 157.145 16.0255C156.248 17.0615 155.8 18.3061 155.8 19.7594V32.6309H151.857V11.6423H155.382L155.661 14.3094C156.264 13.2889 157.106 12.4849 158.189 11.8974C159.286 11.3099 160.485 11.0161 161.783 11.0161C163.36 11.0161 164.752 11.4026 165.958 12.1757C167.164 12.9333 168.022 13.9537 168.532 15.237C169.104 13.9074 169.993 12.8715 171.199 12.1293C172.405 11.3872 173.781 11.0161 175.327 11.0161Z" fill="white"/>
<path d="M203.111 33.1643C200.112 33.1643 197.445 32.4995 195.11 31.1698C192.791 29.8401 190.982 27.9771 189.683 25.5806C188.384 23.1841 187.735 20.4397 187.735 17.3475C187.735 14.2398 188.377 11.4954 189.66 9.11439C190.943 6.7179 192.752 4.85482 195.087 3.52516C197.437 2.19549 200.112 1.53066 203.111 1.53066C205.492 1.53066 207.688 1.94038 209.698 2.75983C211.708 3.57927 213.385 4.75432 214.73 6.28498C216.075 7.80018 216.972 9.57049 217.421 11.5959H212.852C212.28 9.75603 211.097 8.25629 209.303 7.0967C207.525 5.93711 205.43 5.35731 203.018 5.35731C200.869 5.35731 198.96 5.8598 197.29 6.86478C195.636 7.86976 194.345 9.27673 193.417 11.0857C192.505 12.8792 192.049 14.9819 192.049 17.3939C192.049 19.8058 192.505 21.9163 193.417 23.7252C194.345 25.5187 195.636 26.9025 197.29 27.8766C198.96 28.8352 200.869 29.3145 203.018 29.3145C205.399 29.3145 207.479 28.7501 209.257 27.6215C211.051 26.4928 212.249 24.9776 212.852 23.0759H217.421C217.003 25.0704 216.13 26.8329 214.8 28.3636C213.47 29.8788 211.793 31.0616 209.767 31.9119C207.742 32.7468 205.523 33.1643 203.111 33.1643Z" fill="white"/>
<path d="M222.129 0H226.071V14.4949C226.705 13.4126 227.633 12.5622 228.854 11.9438C230.076 11.3253 231.398 11.0161 232.82 11.0161C235.201 11.0161 237.087 11.7737 238.479 13.2889C239.87 14.7887 240.566 16.8991 240.566 19.6203V32.5845H236.623V20.5248C236.623 18.3757 236.167 16.8527 235.255 15.956C234.358 15.0438 233.214 14.5877 231.823 14.5877C230.246 14.5877 228.893 15.0747 227.764 16.0487C226.635 17.0073 226.071 18.3834 226.071 20.1769V32.5845H222.129V0Z" fill="white"/>
<path d="M245.575 22.125C245.575 20.0377 246.047 18.1592 246.99 16.4894C247.949 14.8041 249.278 13.4744 250.979 12.5004C252.695 11.5109 254.643 11.0161 256.823 11.0161C259.004 11.0161 260.959 11.5109 262.691 12.5004C264.423 13.4744 265.76 14.8041 266.703 16.4894C267.662 18.1592 268.141 20.0377 268.141 22.125C268.141 24.1813 267.654 26.0521 266.68 27.7374C265.721 29.4227 264.384 30.7524 262.668 31.7264C260.967 32.685 259.019 33.1643 256.823 33.1643C254.674 33.1643 252.742 32.685 251.026 31.7264C249.325 30.7524 247.987 29.4304 247.013 27.7606C246.055 26.0753 245.575 24.1968 245.575 22.125ZM249.657 22.125C249.657 24.2896 250.33 26.0831 251.675 27.5055C253.02 28.9279 254.736 29.6391 256.823 29.6391C258.973 29.6391 260.72 28.9279 262.065 27.5055C263.425 26.0831 264.106 24.2896 264.106 22.125C264.106 19.945 263.433 18.136 262.088 16.6981C260.743 15.2602 258.988 14.5413 256.823 14.5413C254.736 14.5413 253.02 15.2602 251.675 16.6981C250.33 18.136 249.657 19.945 249.657 22.125Z" fill="white"/>
<path d="M275.377 6.5169C274.557 6.5169 273.869 6.2386 273.313 5.682C272.756 5.12539 272.478 4.43737 272.478 3.61792C272.478 2.8294 272.756 2.16457 273.313 1.62343C273.869 1.08229 274.557 0.811714 275.377 0.811714C276.227 0.811714 276.923 1.08229 277.464 1.62343C278.005 2.16457 278.276 2.8294 278.276 3.61792C278.276 4.40645 278.005 5.08674 277.464 5.6588C276.939 6.23087 276.243 6.5169 275.377 6.5169ZM273.429 11.6423H277.371V32.5845H273.429V11.6423Z" fill="white"/>
<path d="M282.636 22.0786C282.636 19.8986 283.092 17.9737 284.004 16.3039C284.932 14.6186 286.208 13.3198 287.831 12.4076C289.47 11.48 291.348 11.0161 293.467 11.0161C296.157 11.0161 298.422 11.7041 300.262 13.0802C302.102 14.4562 303.207 16.3193 303.578 18.6694H299.543C299.234 17.3707 298.53 16.3502 297.432 15.6081C296.335 14.866 294.997 14.4949 293.42 14.4949C291.395 14.4949 289.756 15.1752 288.504 16.5358C287.251 17.8964 286.625 19.7594 286.625 22.125C286.625 24.3978 287.228 26.2299 288.434 27.6215C289.64 28.9975 291.302 29.6855 293.42 29.6855C294.997 29.6855 296.342 29.3067 297.456 28.5491C298.569 27.7915 299.265 26.7943 299.543 25.5574H303.578C303.192 27.8302 302.071 29.6701 300.215 31.077C298.376 32.4685 296.141 33.1643 293.513 33.1643C291.364 33.1643 289.462 32.7082 287.808 31.796C286.169 30.8683 284.893 29.5696 283.981 27.8998C283.084 26.2145 282.636 24.2741 282.636 22.0786Z" fill="white"/>
<path d="M327.883 26.3227C327.404 28.3791 326.244 30.0334 324.404 31.2858C322.565 32.5381 320.415 33.1643 317.957 33.1643C315.839 33.1643 313.968 32.7005 312.345 31.7728C310.737 30.8297 309.484 29.5232 308.588 27.8534C307.706 26.1681 307.266 24.2277 307.266 22.0322C307.266 19.8522 307.714 17.9273 308.611 16.2575C309.523 14.5722 310.775 13.2812 312.368 12.3844C313.976 11.4722 315.793 11.0161 317.818 11.0161C319.812 11.0161 321.56 11.4413 323.059 12.2917C324.559 13.1266 325.726 14.2939 326.561 15.7936C327.412 17.2934 327.837 19.0096 327.837 20.9422C327.837 21.9936 327.775 22.7898 327.651 23.331H311.162C311.224 25.3255 311.881 26.9257 313.133 28.1317C314.386 29.3222 315.994 29.9174 317.957 29.9174C319.41 29.9174 320.678 29.5928 321.761 28.9434C322.858 28.294 323.616 27.4205 324.033 26.3227H327.883ZM323.848 20.4784C323.817 18.6076 323.245 17.1233 322.132 16.0255C321.018 14.9123 319.565 14.3557 317.772 14.3557C315.87 14.3557 314.316 14.9123 313.11 16.0255C311.904 17.1233 311.27 18.6076 311.208 20.4784H323.848Z" fill="white"/>
</svg>
