<svg width="35" height="37" viewBox="0 0 35 37" fill="none" xmlns="http://www.w3.org/2000/svg">
<path d="M19.2855 6.74939L20.6355 5.38179C23.2865 2.69619 27.6025 2.62972 30.2688 5.29985C31.2791 6.31386 31.9505 7.623 32.1887 9.04339C32.4269 10.4638 32.2198 11.9241 31.5966 13.2191C31.2977 13.8378 31.197 14.5355 31.3084 15.215C31.4201 15.8944 31.7382 16.5216 32.2187 17.0089C33.1023 16.1118 33.8026 15.0471 34.2798 13.8757C34.757 12.7043 35.0017 11.4491 35 10.1819C34.9981 8.91465 34.75 7.66018 34.2695 6.49015C33.789 5.32011 33.0856 4.25744 32.1996 3.36284C28.4713 -0.392809 22.4194 -0.318072 18.7015 3.44813L5.83367 16.4833L4.77582 15.4117C2.0798 12.6805 2.06261 8.21617 4.80619 5.53355C5.82174 4.54363 7.11558 3.89742 8.50912 3.68411C9.90266 3.4708 11.3272 3.70092 12.5861 4.34269C13.1607 4.64099 13.8137 4.74769 14.4518 4.64758C15.0898 4.54747 15.6804 4.24565 16.139 3.78524L16.1718 3.75218C16.182 3.74191 16.1901 3.72969 16.1956 3.71622C16.2011 3.70277 16.204 3.68833 16.204 3.67375C16.204 3.65917 16.2011 3.64473 16.1956 3.63128C16.1901 3.61783 16.182 3.60561 16.1718 3.59532C14.4007 1.84624 12.0274 0.863783 9.55395 0.855839C7.08055 0.847898 4.70109 1.81509 2.9191 3.55276C-0.919482 7.30666 -0.905765 13.549 2.86703 17.371L15.731 30.4026L14.3645 31.7869C11.7135 34.4725 7.39736 34.539 4.7312 31.8689C3.7209 30.8549 3.0495 29.5457 2.81132 28.1254C2.57316 26.705 2.78015 25.2447 3.40324 23.9496C3.70218 23.3309 3.80293 22.6332 3.69144 21.9539C3.57992 21.2744 3.26172 20.6471 2.78127 20.1598C1.89776 21.057 1.19739 22.1216 0.720167 23.293C0.242947 24.4645 -0.00176368 25.7195 9.56839e-06 26.9869C0.00178282 28.2541 0.250005 29.5086 0.730503 30.6785C1.211 31.8487 1.91435 32.9113 2.80037 33.8059C6.52855 37.5617 12.5806 37.4872 16.2985 33.7208L29.183 20.6682L30.2449 21.7439C32.8959 24.4295 32.9615 28.8017 30.3257 31.5026C29.3248 32.5262 28.0325 33.2062 26.6304 33.4477C25.2283 33.6889 23.7868 33.4791 22.5083 32.8478C21.8975 32.5448 21.2083 32.4427 20.5374 32.5559C19.8665 32.669 19.2471 32.9917 18.7661 33.4788C19.6517 34.3739 20.7026 35.0834 21.8589 35.5669C23.0154 36.0503 24.2543 36.2982 25.5053 36.2965C26.7562 36.2945 27.9946 36.0431 29.1495 35.5563C30.3046 35.0695 31.3536 34.357 32.2366 33.4595C35.9441 29.6827 35.8704 23.5518 32.1526 19.7856L19.2855 6.74939ZM17.652 28.4558L7.75513 18.43L17.3638 8.69624L27.2607 18.7221L17.652 28.4558Z" fill="white"/>
</svg>
